HIERARCHY
ROOT Hips
{
	OFFSET 0.000000 0.000000 0.000000
	CHANNELS 6 Xposition Yposition Zposition Xrotation Yrotation Zrotation
	JOINT LeftUpLeg_virtual
	{
		OFFSET 0.000000 0.000000 0.000000
		CHANNELS 3 Xrotation Yrotation Zrotation
		JOINT LeftUpLeg
		{
			OFFSET 11.394100 -6.187798 -0.413800
			CHANNELS 3 Xrotation Yrotation Zrotation
			JOINT LeftLeg
			{
				OFFSET 0.430247 -32.302673 3.732800
				CHANNELS 3 Xrotation Yrotation Zrotation
				JOINT LeftFoot
				{
					OFFSET -0.430247 -48.264931 -6.423300
					CHANNELS 3 Xrotation Yrotation Zrotation
					JOINT LeftToeBase
					{
						OFFSET 4.230900 -16.068199 23.438400
						CHANNELS 3 Xrotation Yrotation Zrotation
						JOINT LeftToe_End
						{
							OFFSET 4.510700 0.695400 19.974600
							CHANNELS 3 Xrotation Yrotation Zrotation
							End Site
							{
								OFFSET 0 0 0
							}
						}
					}
				}
			}
		}
	}
	JOINT RightUpLeg_virtual
	{
		OFFSET 0.000000 0.000000 0.000000
		CHANNELS 3 Xrotation Yrotation Zrotation
		JOINT RightUpLeg
		{
			OFFSET -11.333700 -6.187798 -0.413800
			CHANNELS 3 Xrotation Yrotation Zrotation
			JOINT RightLeg
			{
				OFFSET -0.430392 -32.302628 3.733000
				CHANNELS 3 Xrotation Yrotation Zrotation
				JOINT RightFoot
				{
					OFFSET 0.430392 -48.264973 -6.423500
					CHANNELS 3 Xrotation Yrotation Zrotation
					JOINT RightToeBase
					{
						OFFSET -4.230900 -16.068199 23.438400
						CHANNELS 3 Xrotation Yrotation Zrotation
						JOINT RightToe_End
						{
							OFFSET -4.510700 0.695400 19.974600
							CHANNELS 3 Xrotation Yrotation Zrotation
							End Site
							{
								OFFSET 0 0 0
							}
						}
					}
				}
			}
		}
	}
	JOINT Spine_virtual
	{
		OFFSET 0.000000 0.000000 0.000000
		CHANNELS 3 Xrotation Yrotation Zrotation
		JOINT Spine
		{
			OFFSET -0.002400 12.777504 0.315300
			CHANNELS 3 Xrotation Yrotation Zrotation
			JOINT Spine1
			{
				OFFSET -0.002067 5.816869 0.032633
				CHANNELS 3 Xrotation Yrotation Zrotation
				JOINT Spine1_split
				{
					OFFSET -0.002067 5.816869 0.032633
					CHANNELS 3 Xrotation Yrotation Zrotation
					JOINT Spine2
					{
						OFFSET -0.002067 5.816869 0.032633
						CHANNELS 3 Xrotation Yrotation Zrotation
						JOINT Neck_virtual
						{
							OFFSET 0.000000 0.000000 0.000000
							CHANNELS 3 Xrotation Yrotation Zrotation
							JOINT Neck
							{
								OFFSET -0.003700 21.199493 -0.826900
								CHANNELS 3 Xrotation Yrotation Zrotation
								JOINT Head
								{
									OFFSET 0.000000 20.442200 4.834800
									CHANNELS 3 Xrotation Yrotation Zrotation
									JOINT HeadTop_End
									{
										OFFSET 0.000000 34.668396 4.968400
										CHANNELS 3 Xrotation Yrotation Zrotation
										End Site
										{
											OFFSET 0 0 0
										}
									}
								}
							}
						}
						JOINT LeftShoulder_virtual
						{
							OFFSET 0.000000 0.000000 0.000000
							CHANNELS 3 Xrotation Yrotation Zrotation
							JOINT LeftShoulder
							{
								OFFSET 3.288150 8.794197 -1.372250
								CHANNELS 3 Xrotation Yrotation Zrotation
								JOINT LeftShoulder_split
								{
									OFFSET 3.288150 8.794197 -1.372250
									CHANNELS 3 Xrotation Yrotation Zrotation
									JOINT LeftArm
									{
										OFFSET 11.953299 -2.279007 -0.146200
										CHANNELS 3 Xrotation Yrotation Zrotation
										JOINT LeftForeArm
										{
											OFFSET 18.448900 0.000000 0.000000
											CHANNELS 3 Xrotation Yrotation Zrotation
											JOINT LeftHand
											{
												OFFSET 29.527798 0.000000 0.000000
												CHANNELS 3 Xrotation Yrotation Zrotation
												End Site
												{
													OFFSET 0 0 0
												}
											}
										}
									}
								}
							}
						}
						JOINT RightShoulder_virtual
						{
							OFFSET 0.000000 0.000000 0.000000
							CHANNELS 3 Xrotation Yrotation Zrotation
							JOINT RightShoulder
							{
								OFFSET -3.249400 8.794197 -1.372250
								CHANNELS 3 Xrotation Yrotation Zrotation
								JOINT RightShoulder_split
								{
									OFFSET -3.249400 8.794197 -1.372250
									CHANNELS 3 Xrotation Yrotation Zrotation
									JOINT RightArm
									{
										OFFSET -11.953299 -2.279007 -0.146200
										CHANNELS 3 Xrotation Yrotation Zrotation
										JOINT RightForeArm
										{
											OFFSET -18.448900 0.000000 0.000000
											CHANNELS 3 Xrotation Yrotation Zrotation
											JOINT RightHand
											{
												OFFSET -29.527802 0.000000 0.000000
												CHANNELS 3 Xrotation Yrotation Zrotation
												End Site
												{
													OFFSET 0 0 0
												}
											}
										}
									}
								}
							}
						}
					}
				}
			}
		}
	}
}
MOTION
Frames: 4
Frame Time: 0.03333333
-1.302204 94.094841 0.073368 0.000000 0.000000 0.000000 -5.667532 -42.509253 -2.697751 -30.105565 4.094001 11.694983 34.297891 -11.954130 2.182147 -2.057390 0.359580 -10.555786 -2.715869 -3.120901 0.659116 0.000000 0.000000 0.000000 -5.667532 -42.509253 -2.697751 -4.567995 -14.139387 -15.993057 32.233097 18.773315 -4.500603 -26.235942 -1.543822 5.251017 -1.576692 -1.962059 2.928653 0.000000 0.000000 0.000000 -5.667532 -42.509253 -2.697751 5.900701 0.605608 -0.057826 11.805243 0.991256 -0.356033 0.000000 0.000000 0.000000 0.000000 0.000000 0.000000 11.805237 0.991257 -0.356032 5.454847 -28.041992 -1.570763 -9.679874 -42.734564 2.179725 0.000000 0.000000 0.000000 11.805237 0.991257 -0.356032 0.953417 -3.294064 -6.337552 0.000000 0.000000 0.000000 -7.803582 10.695480 -60.595717 -1.858039 -56.426351 -5.060456 0.000000 0.000000 0.000000 11.805237 0.991257 -0.356032 1.781014 9.143867 7.041884 0.000000 0.000000 0.000000 5.733462 -24.152577 68.587653 -7.143942 60.700274 7.121731 0.000000 0.000000 0.000000 
-1.347091 94.269073 0.064285 0.000000 0.000000 0.000000 -5.879698 -46.331263 -2.978107 -28.795770 4.794628 12.952982 33.742381 -9.400727 1.875621 -2.465651 0.457813 -11.220123 -2.671755 -3.066294 0.628142 0.000000 0.000000 0.000000 -5.879698 -46.331263 -2.978107 -6.533382 -13.758336 -16.338132 32.900471 19.806715 -5.174880 -25.314990 -1.450551 5.655447 -1.356154 -1.475251 2.774605 0.000000 0.000000 0.000000 -5.879698 -46.331263 -2.978107 5.994624 0.058438 0.019850 11.989270 -0.070025 -0.121169 0.000000 0.000000 0.000000 0.000000 0.000000 0.000000 11.989275 -0.070040 -0.121164 4.858835 -27.854886 -2.018469 -8.864673 -43.760274 3.691629 0.000000 0.000000 0.000000 11.989275 -0.070040 -0.121164 0.810229 -4.308829 -6.381134 0.000000 0.000000 0.000000 -6.676080 12.150739 -60.876704 -2.277416 -57.498677 -5.268948 0.000000 0.000000 0.000000 11.989275 -0.070040 -0.121164 1.951320 7.799980 7.121222 0.000000 0.000000 0.000000 6.182287 -23.943565 68.623846 -6.650508 61.549232 7.002533 0.000000 0.000000 0.000000 
-1.393113 94.424164 0.052010 0.000000 0.000000 0.000000 -6.136814 -50.143940 -3.252456 -27.413970 5.493682 14.046077 33.188026 -6.760342 1.588601 -2.843006 0.563048 -11.940059 -2.647461 -3.011303 0.592853 0.000000 0.000000 0.000000 -6.136814 -50.143940 -3.252456 -8.542302 -13.260901 -16.565688 33.660822 20.542047 -5.877974 -24.316182 -1.394990 6.188478 -1.245889 -1.155874 2.637938 0.000000 0.000000 0.000000 -6.136814 -50.143940 -3.252456 6.064794 -0.482302 0.079656 12.129432 -1.118523 0.088671 0.000000 0.000000 0.000000 0.000000 0.000000 0.000000 12.129432 -1.118536 0.088675 4.097771 -27.486780 -2.682844 -7.896992 -44.635030 5.189469 0.000000 0.000000 0.000000 12.129432 -1.118536 0.088675 0.680386 -5.223106 -6.405302 0.000000 0.000000 0.000000 -5.606937 13.591761 -61.004770 -2.951128 -58.492053 -5.571363 0.000000 0.000000 0.000000 12.129432 -1.118536 0.088675 2.096430 6.732506 7.083140 0.000000 0.000000 0.000000 6.919926 -24.109970 68.744242 -6.249784 62.398313 6.854593 0.000000 0.000000 0.000000 
-1.431192 94.559174 0.070690 0.000000 0.000000 0.000000 -6.436296 -53.895151 -3.472082 -26.020410 6.184554 14.879120 32.719721 -4.042899 1.312876 -3.228806 0.663325 -12.582126 -2.606818 -2.932342 0.543373 0.000000 0.000000 0.000000 -6.436296 -53.895151 -3.472082 -10.599678 -12.700610 -16.763328 34.519011 21.039059 -6.610687 -23.275067 -1.360667 6.784838 -1.078542 -0.935923 2.517930 0.000000 0.000000 0.000000 -6.436296 -53.895151 -3.472082 6.117161 -0.901769 0.088083 12.236342 -1.929285 0.195222 0.000000 0.000000 0.000000 0.000000 0.000000 0.000000 12.236340 -1.929291 0.195222 3.276570 -27.275152 -3.245355 -6.881263 -45.421424 6.565915 0.000000 0.000000 0.000000 12.236340 -1.929291 0.195222 0.531307 -6.264059 -6.402720 0.000000 0.000000 0.000000 -4.795700 14.743354 -60.737375 -3.860296 -59.339932 -6.069097 0.000000 0.000000 0.000000 12.236340 -1.929291 0.195222 2.274329 5.224278 7.362090 0.000000 0.000000 0.000000 7.458094 -24.432162 68.517773 -6.275217 63.212663 7.014536 0.000000 0.000000 0.000000 
